<svg width="16" height="15" viewBox="0 0 16 15" fill="none" xmlns="http://www.w3.org/2000/svg">
<path d="M8.68421 13.5323C8.3775 13.6691 8.14999 13.7234 8.00297 13.727H7.9999H7.96289C7.81564 13.7169 7.59882 13.6609 7.31347 13.5336C7.01093 13.3986 6.66117 13.197 6.28129 12.9331C5.52174 12.4055 4.67116 11.6494 3.87496 10.7437C2.26844 8.91622 0.962402 6.57248 0.962402 4.35847C0.962402 2.30644 2.66153 0.542969 4.51465 0.542969C5.98417 0.542969 7.00884 1.55884 7.59138 2.37981L7.9993 2.9547L8.40702 2.37967C8.98811 1.56016 10.0128 0.542969 11.4829 0.542969C13.3375 0.542969 15.0359 2.30639 15.0359 4.35922C15.0359 6.57243 13.7297 8.91577 12.123 10.7429C11.3267 11.6485 10.4761 12.4045 9.71644 12.932C9.33653 13.1959 8.98675 13.3974 8.68421 13.5323Z" fill="white" stroke="#5B7083"/>
</svg>
