<svg width="18" height="14" viewBox="0 0 18 14" fill="none" xmlns="http://www.w3.org/2000/svg">
<path d="M17.8275 9.75244C17.6085 9.53269 17.2523 9.53269 17.0325 9.75244L15.3675 11.4174V3.73744C15.3675 2.18644 14.1053 0.924936 12.555 0.924936H8.16751C7.85701 0.924936 7.60501 1.17694 7.60501 1.48744C7.60501 1.79794 7.85701 2.04994 8.16751 2.04994H12.555C13.485 2.04994 14.2425 2.80744 14.2425 3.73744V11.4174L12.5775 9.75244C12.3578 9.53269 12.0015 9.53269 11.7825 9.75244C11.5635 9.97219 11.562 10.3284 11.7825 10.5474L14.4075 13.1724C14.5163 13.2827 14.6603 13.3374 14.805 13.3374C14.9498 13.3374 15.0923 13.2834 15.2025 13.1724L17.8275 10.5474C18.048 10.3284 18.048 9.97219 17.8275 9.75244ZM9.83251 12.2124H5.44501C4.51501 12.2124 3.75751 11.4549 3.75751 10.5249V2.84494L5.42251 4.50994C5.53351 4.62019 5.67751 4.67494 5.82151 4.67494C5.96551 4.67494 6.10951 4.62019 6.21901 4.50994C6.43876 4.29019 6.43876 3.93394 6.21901 3.71494L3.59401 1.08994C3.37426 0.869436 3.01801 0.869436 2.79901 1.08994L0.174011 3.71494C-0.0464885 3.93394 -0.0464885 4.29019 0.174011 4.50994C0.394511 4.72969 0.749261 4.72969 0.969011 4.50994L2.63401 2.84494V10.5249C2.63401 12.0759 3.89626 13.3374 5.44651 13.3374H9.83401C10.1445 13.3374 10.3965 13.0854 10.3965 12.7749C10.3965 12.4644 10.1438 12.2124 9.83401 12.2124H9.83251Z" fill="#5B7083"/>
</svg>
